<?xml version="1.0" encoding="UTF-8" standalone="no"?>
<!DOCTYPE svg PUBLIC "-//W3C//DTD SVG 1.1//EN"
 "http://www.w3.org/Graphics/SVG/1.1/DTD/svg11.dtd">
<!-- Generated by graphviz version 15.1.1 (0)
 -->
<!-- Title: CLAWHunter Pages: 1 -->
<svg width="833pt" height="657pt"
 viewBox="0.00 0.00 833.00 657.00" xmlns="http://www.w3.org/2000/svg" xmlns:xlink="http://www.w3.org/1999/xlink">
<g id="graph0" class="graph" transform="scale(1 1) rotate(0) translate(36 621)">
<title>CLAWHunter</title>
<polygon fill="#0d1117" stroke="none" points="-36,36 -36,-621 797.12,-621 797.12,36 -36,36"/>
<text xml:space="preserve" text-anchor="middle" x="380.56" y="-567.7" font-family="Helvetica,sans-Serif" font-size="14.00" fill="#e6edf3">CLAWHunter v3.3.0 Architecture</text>
<!-- user -->
<g id="node1" class="node">
<title>user</title>
<path fill="#161b22" stroke="#58a6ff" d="M235,-559.75C235,-559.75 12,-559.75 12,-559.75 6,-559.75 0,-553.75 0,-547.75 0,-547.75 0,-529.25 0,-529.25 0,-523.25 6,-517.25 12,-517.25 12,-517.25 235,-517.25 235,-517.25 241,-517.25 247,-523.25 247,-529.25 247,-529.25 247,-547.75 247,-547.75 247,-553.75 241,-559.75 235,-559.75"/>
<text xml:space="preserve" text-anchor="middle" x="123.5" y="-542.45" font-family="Helvetica,sans-Serif" font-size="14.00" fill="#e6edf3">User / reconnaissance</text>
<text xml:space="preserve" text-anchor="middle" x="123.5" y="-525.2" font-family="Helvetica,sans-Serif" font-size="14.00" fill="#e6edf3">Interactive scan + result browser</text>
</g>
<!-- common -->
<g id="node4" class="node">
<title>common</title>
<path fill="#161b22" stroke="#3fb950" stroke-width="2" d="M578,-480.25C578,-480.25 169,-480.25 169,-480.25 163,-480.25 157,-474.25 157,-468.25 157,-468.25 157,-449.75 157,-449.75 157,-443.75 163,-437.75 169,-437.75 169,-437.75 578,-437.75 578,-437.75 584,-437.75 590,-443.75 590,-449.75 590,-449.75 590,-468.25 590,-468.25 590,-474.25 584,-480.25 578,-480.25"/>
<text xml:space="preserve" text-anchor="middle" x="373.5" y="-462.95" font-family="Helvetica,sans-Serif" font-size="14.00" fill="#e6edf3">lib/common.sh</text>
<text xml:space="preserve" text-anchor="middle" x="373.5" y="-445.7" font-family="Helvetica,sans-Serif" font-size="14.00" fill="#e6edf3">Validation, evidence scoring, mDNS, ARP, hardware, reports</text>
</g>
<!-- user&#45;&gt;common -->
<g id="edge1" class="edge">
<title>user&#45;&gt;common</title>
<path fill="none" stroke="#8b949e" d="M190.17,-516.83C222.28,-506.88 261,-494.87 294.57,-484.47"/>
<polygon fill="#8b949e" stroke="#8b949e" points="295.32,-487.9 303.83,-481.6 293.24,-481.21 295.32,-487.9"/>
</g>
<!-- recon -->
<g id="node2" class="node">
<title>recon</title>
<path fill="#161b22" stroke="#58a6ff" d="M469.62,-559.75C469.62,-559.75 277.38,-559.75 277.38,-559.75 271.38,-559.75 265.38,-553.75 265.38,-547.75 265.38,-547.75 265.38,-529.25 265.38,-529.25 265.38,-523.25 271.38,-517.25 277.38,-517.25 277.38,-517.25 469.62,-517.25 469.62,-517.25 475.62,-517.25 481.62,-523.25 481.62,-529.25 481.62,-529.25 481.62,-547.75 481.62,-547.75 481.62,-553.75 475.62,-559.75 469.62,-559.75"/>
<text xml:space="preserve" text-anchor="middle" x="373.5" y="-542.45" font-family="Helvetica,sans-Serif" font-size="14.00" fill="#e6edf3">Recon / access_point</text>
<text xml:space="preserve" text-anchor="middle" x="373.5" y="-525.2" font-family="Helvetica,sans-Serif" font-size="14.00" fill="#e6edf3">Selected AP + 2.4 GHz client</text>
</g>
<!-- recon&#45;&gt;common -->
<g id="edge2" class="edge">
<title>recon&#45;&gt;common</title>
<path fill="none" stroke="#8b949e" d="M373.5,-517.14C373.5,-509.58 373.5,-500.8 373.5,-492.43"/>
<polygon fill="#8b949e" stroke="#8b949e" points="377,-492.55 373.5,-482.55 370,-492.55 377,-492.55"/>
</g>
<!-- alert -->
<g id="node3" class="node">
<title>alert</title>
<path fill="#161b22" stroke="#58a6ff" d="M749.12,-559.75C749.12,-559.75 511.88,-559.75 511.88,-559.75 505.88,-559.75 499.88,-553.75 499.88,-547.75 499.88,-547.75 499.88,-529.25 499.88,-529.25 499.88,-523.25 505.88,-517.25 511.88,-517.25 511.88,-517.25 749.12,-517.25 749.12,-517.25 755.12,-517.25 761.12,-523.25 761.12,-529.25 761.12,-529.25 761.12,-547.75 761.12,-547.75 761.12,-553.75 755.12,-559.75 749.12,-559.75"/>
<text xml:space="preserve" text-anchor="middle" x="630.5" y="-542.45" font-family="Helvetica,sans-Serif" font-size="14.00" fill="#e6edf3">Alert / pineapple_client_connected</text>
<text xml:space="preserve" text-anchor="middle" x="630.5" y="-525.2" font-family="Helvetica,sans-Serif" font-size="14.00" fill="#e6edf3">Exact triggering client + fast probe</text>
</g>
<!-- alert&#45;&gt;common -->
<g id="edge3" class="edge">
<title>alert&#45;&gt;common</title>
<path fill="none" stroke="#8b949e" d="M561.97,-516.83C528.96,-506.88 489.15,-494.87 454.64,-484.47"/>
<polygon fill="#8b949e" stroke="#8b949e" points="455.67,-481.12 445.08,-481.59 453.64,-487.82 455.67,-481.12"/>
</g>
<!-- discovery -->
<g id="node5" class="node">
<title>discovery</title>
<path fill="#161b22" stroke="#d29922" d="M457.62,-400.75C457.62,-400.75 289.38,-400.75 289.38,-400.75 283.38,-400.75 277.38,-394.75 277.38,-388.75 277.38,-388.75 277.38,-335.75 277.38,-335.75 277.38,-329.75 283.38,-323.75 289.38,-323.75 289.38,-323.75 457.62,-323.75 457.62,-323.75 463.62,-323.75 469.62,-329.75 469.62,-335.75 469.62,-335.75 469.62,-388.75 469.62,-388.75 469.62,-394.75 463.62,-400.75 457.62,-400.75"/>
<text xml:space="preserve" text-anchor="middle" x="373.5" y="-383.45" font-family="Helvetica,sans-Serif" font-size="14.00" fill="#e6edf3">Discovery</text>
<text xml:space="preserve" text-anchor="middle" x="373.5" y="-366.2" font-family="Helvetica,sans-Serif" font-size="14.00" fill="#e6edf3">_openclaw&#45;gw._tcp hints</text>
<text xml:space="preserve" text-anchor="middle" x="373.5" y="-348.95" font-family="Helvetica,sans-Serif" font-size="14.00" fill="#e6edf3">IPv4 ARP/ping hosts</text>
<text xml:space="preserve" text-anchor="middle" x="373.5" y="-331.7" font-family="Helvetica,sans-Serif" font-size="14.00" fill="#e6edf3">IPv6 link&#45;local candidates</text>
</g>
<!-- common&#45;&gt;discovery -->
<g id="edge4" class="edge">
<title>common&#45;&gt;discovery</title>
<path fill="none" stroke="#8b949e" d="M373.5,-436.97C373.5,-429.62 373.5,-421.02 373.5,-412.35"/>
<polygon fill="#8b949e" stroke="#8b949e" points="377,-412.51 373.5,-402.51 370,-412.51 377,-412.51"/>
</g>
<!-- probe -->
<g id="node6" class="node">
<title>probe</title>
<path fill="#161b22" stroke="#d29922" d="M488.75,-286.75C488.75,-286.75 258.25,-286.75 258.25,-286.75 252.25,-286.75 246.25,-280.75 246.25,-274.75 246.25,-274.75 246.25,-221.75 246.25,-221.75 246.25,-215.75 252.25,-209.75 258.25,-209.75 258.25,-209.75 488.75,-209.75 488.75,-209.75 494.75,-209.75 500.75,-215.75 500.75,-221.75 500.75,-221.75 500.75,-274.75 500.75,-274.75 500.75,-280.75 494.75,-286.75 488.75,-286.75"/>
<text xml:space="preserve" text-anchor="middle" x="373.5" y="-269.45" font-family="Helvetica,sans-Serif" font-size="14.00" fill="#e6edf3">Classifier</text>
<text xml:space="preserve" text-anchor="middle" x="373.5" y="-252.2" font-family="Helvetica,sans-Serif" font-size="14.00" fill="#e6edf3">TCP + HTTP/S + health/readiness</text>
<text xml:space="preserve" text-anchor="middle" x="373.5" y="-234.95" font-family="Helvetica,sans-Serif" font-size="14.00" fill="#e6edf3">WebSocket + connect.challenge</text>
<text xml:space="preserve" text-anchor="middle" x="373.5" y="-217.7" font-family="Helvetica,sans-Serif" font-size="14.00" fill="#e6edf3">CONFIRMED / LIKELY / CANDIDATE</text>
</g>
<!-- discovery&#45;&gt;probe -->
<g id="edge5" class="edge">
<title>discovery&#45;&gt;probe</title>
<path fill="none" stroke="#8b949e" d="M373.5,-323.33C373.5,-315.4 373.5,-306.92 373.5,-298.63"/>
<polygon fill="#8b949e" stroke="#8b949e" points="377,-298.64 373.5,-288.64 370,-298.64 377,-298.64"/>
</g>
<!-- harvest -->
<g id="node7" class="node">
<title>harvest</title>
<path fill="#161b22" stroke="#a371f7" d="M404.25,-156.5C404.25,-156.5 200.75,-156.5 200.75,-156.5 194.75,-156.5 188.75,-150.5 188.75,-144.5 188.75,-144.5 188.75,-91.5 188.75,-91.5 188.75,-85.5 194.75,-79.5 200.75,-79.5 200.75,-79.5 404.25,-79.5 404.25,-79.5 410.25,-79.5 416.25,-85.5 416.25,-91.5 416.25,-91.5 416.25,-144.5 416.25,-144.5 416.25,-150.5 410.25,-156.5 404.25,-156.5"/>
<text xml:space="preserve" text-anchor="middle" x="302.5" y="-139.2" font-family="Helvetica,sans-Serif" font-size="14.00" fill="#e6edf3">harvest.py</text>
<text xml:space="preserve" text-anchor="middle" x="302.5" y="-121.95" font-family="Helvetica,sans-Serif" font-size="14.00" fill="#e6edf3">180s ceiling</text>
<text xml:space="preserve" text-anchor="middle" x="302.5" y="-104.7" font-family="Helvetica,sans-Serif" font-size="14.00" fill="#e6edf3">Current HTTP/WS evidence</text>
<text xml:space="preserve" text-anchor="middle" x="302.5" y="-87.45" font-family="Helvetica,sans-Serif" font-size="14.00" fill="#e6edf3">Authorized read&#45;only tool calls</text>
</g>
<!-- probe&#45;&gt;harvest -->
<g id="edge7" class="edge">
<title>probe&#45;&gt;harvest</title>
<path fill="none" stroke="#8b949e" d="M328.82,-209.41C324.12,-203.88 319.84,-197.95 316.5,-191.75 312.56,-184.43 309.71,-176.17 307.66,-167.92"/>
<polygon fill="#8b949e" stroke="#8b949e" points="311.11,-167.3 305.64,-158.22 304.26,-168.73 311.11,-167.3"/>
<text xml:space="preserve" text-anchor="middle" x="373.5" y="-178.45" font-family="Helvetica,sans-Serif" font-size="14.00" fill="#8b949e">confirmed result</text>
</g>
<!-- output -->
<g id="node8" class="node">
<title>output</title>
<path fill="#161b22" stroke="#484f58" d="M523.25,-42.5C523.25,-42.5 223.75,-42.5 223.75,-42.5 217.75,-42.5 211.75,-36.5 211.75,-30.5 211.75,-30.5 211.75,-12 211.75,-12 211.75,-6 217.75,0 223.75,0 223.75,0 523.25,0 523.25,0 529.25,0 535.25,-6 535.25,-12 535.25,-12 535.25,-30.5 535.25,-30.5 535.25,-36.5 529.25,-42.5 523.25,-42.5"/>
<text xml:space="preserve" text-anchor="middle" x="373.5" y="-25.2" font-family="Helvetica,sans-Serif" font-size="14.00" fill="#e6edf3">/root/loot/clawhunter</text>
<text xml:space="preserve" text-anchor="middle" x="373.5" y="-7.95" font-family="Helvetica,sans-Serif" font-size="14.00" fill="#e6edf3">Logs, JSON, harvest reports, watchdog state</text>
</g>
<!-- probe&#45;&gt;output -->
<g id="edge6" class="edge">
<title>probe&#45;&gt;output</title>
<path fill="none" stroke="#8b949e" d="M419.87,-209.3C424.16,-203.87 427.87,-197.99 430.5,-191.75 439.73,-169.89 469.32,-184.61 425.5,-79.5 421.17,-69.11 414.09,-59.38 406.54,-50.99"/>
<polygon fill="#8b949e" stroke="#8b949e" points="409.11,-48.62 399.64,-43.86 404.07,-53.48 409.11,-48.62"/>
</g>
<!-- harvest&#45;&gt;output -->
<g id="edge8" class="edge">
<title>harvest&#45;&gt;output</title>
<path fill="none" stroke="#8b949e" d="M330.97,-79.01C337.7,-70.03 344.77,-60.58 351.18,-52.03"/>
<polygon fill="#8b949e" stroke="#8b949e" points="353.98,-54.14 357.18,-44.04 348.38,-49.94 353.98,-54.14"/>
</g>
</g>
</svg>
